<svg width="205" height="114" viewBox="0 0 205 114" fill="none" xmlns="http://www.w3.org/2000/svg">
<path d="M18.2067 90V89.07L20.5317 88.76L26.4992 70.9867H27.9458L34.0167 88.8117L36.3417 89.07V90H28.8758V89.07L31.7175 88.7858L30.0125 83.645H23.3733L21.6942 88.7342L24.4067 89.07V90H18.2067ZM23.735 82.5858H29.6508L26.68 73.6475L23.735 82.5858ZM37.7302 90V89.1733L39.9002 88.8633C39.9519 87.4167 39.9777 85.8322 39.9777 84.11V82.6892C39.9777 81.6558 39.9433 80.4158 39.8744 78.9692C39.8744 78.8831 39.8744 78.8142 39.8744 78.7625L37.5752 78.5817V77.755L41.2952 76.3858L41.6569 76.6442L41.8635 79.0208C42.6213 78.1942 43.4222 77.5483 44.266 77.0833C45.1444 76.6011 46.0055 76.36 46.8494 76.36C48.6233 76.36 49.7169 77.2642 50.1302 79.0725C51.6113 77.2642 53.3249 76.36 55.271 76.36C57.6305 76.36 58.8102 77.9789 58.8102 81.2167V84.11C58.8102 85.3672 58.8274 86.9431 58.8619 88.8375L60.9027 89.1733V90H54.6252V89.1733L56.821 88.8633C56.8555 86.9344 56.8727 85.35 56.8727 84.11V81.475C56.8727 80.1833 56.666 79.2619 56.2527 78.7108C55.8566 78.2286 55.2366 77.9875 54.3927 77.9875C53.0494 77.9875 51.6802 78.6764 50.2852 80.0542C50.3369 80.4675 50.3627 80.9239 50.3627 81.4233V84.11C50.3627 85.3672 50.3799 86.9431 50.4144 88.8375L52.4552 89.1733V90H46.1777V89.1733L48.3735 88.8633C48.408 86.9689 48.4252 85.3844 48.4252 84.11V81.5267C48.4252 80.235 48.2272 79.3136 47.831 78.7625C47.4522 78.2458 46.8494 77.9875 46.0227 77.9875C44.7655 77.9875 43.4049 78.6592 41.941 80.0025V84.11C41.941 85.3672 41.9583 86.9431 41.9927 88.8375L44.0335 89.1733V90H37.7302ZM66.8337 90.3617C65.7487 90.3617 64.8703 90.0689 64.1987 89.4833C63.4753 88.8633 63.1137 88.0194 63.1137 86.9517C63.1137 86.0389 63.4323 85.2725 64.0695 84.6525C64.7584 83.9464 65.9467 83.2919 67.6345 82.6892C68.9778 82.2758 70.1231 81.9658 71.0703 81.7592V80.9325C71.0703 79.5547 70.8465 78.6075 70.3987 78.0908C69.9853 77.6258 69.2706 77.3933 68.2545 77.3933C67.6001 77.3933 66.9973 77.4881 66.4462 77.6775L65.8778 79.5892C65.6712 80.3469 65.2492 80.7258 64.612 80.7258C63.9059 80.7258 63.527 80.3986 63.4753 79.7442C63.7509 78.6936 64.3537 77.8669 65.2837 77.2642C66.2309 76.6614 67.3934 76.36 68.7712 76.36C70.2351 76.36 71.3028 76.7131 71.9745 77.4192C72.6806 78.1597 73.0337 79.3567 73.0337 81.01V87.1325C73.0337 88.4414 73.404 89.0958 74.1445 89.0958C74.5406 89.0958 74.9281 88.8892 75.307 88.4758L75.7462 89.0183C75.1778 89.8794 74.4287 90.31 73.4987 90.31C72.8442 90.31 72.3103 90.1119 71.897 89.7158C71.5009 89.3025 71.2426 88.7342 71.122 88.0108C70.2781 88.8719 69.5806 89.4661 69.0295 89.7933C68.3578 90.1722 67.6259 90.3617 66.8337 90.3617ZM67.5828 88.8375C68.0995 88.8375 68.6076 88.7083 69.107 88.45C69.5548 88.2089 70.2092 87.7439 71.0703 87.055V82.5858C69.882 82.9131 68.9176 83.2231 68.177 83.5158C67.0231 83.9464 66.2137 84.4458 65.7487 85.0142C65.387 85.4619 65.2062 85.9872 65.2062 86.59C65.2062 87.3306 65.4301 87.8989 65.8778 88.295C66.2912 88.6567 66.8595 88.8375 67.5828 88.8375ZM83.5416 90.3617C81.6471 90.3617 80.1316 89.7331 78.9949 88.4758C77.8583 87.2014 77.2899 85.4964 77.2899 83.3608C77.2899 81.2425 77.9444 79.5289 79.2533 78.22C80.476 76.98 81.9658 76.36 83.7224 76.36C84.9108 76.36 85.9527 76.6786 86.8483 77.3158C87.761 77.9531 88.338 78.7797 88.5791 79.7958C88.4758 80.4331 88.0969 80.7517 87.4424 80.7517C86.7708 80.7517 86.3316 80.3814 86.1249 79.6408L85.5566 77.7033C84.9366 77.4967 84.351 77.3933 83.7999 77.3933C82.4738 77.3933 81.406 77.9014 80.5966 78.9175C79.7527 79.9681 79.3308 81.3889 79.3308 83.18C79.3308 84.9539 79.7785 86.3575 80.6741 87.3908C81.5352 88.4069 82.6719 88.915 84.0841 88.915C84.9108 88.915 85.6685 88.7342 86.3574 88.3725C87.0635 87.9936 87.6491 87.4683 88.1141 86.7967L88.6566 87.055C87.7266 89.2594 86.0216 90.3617 83.5416 90.3617ZM94.7609 90.3617C93.6759 90.3617 92.7976 90.0689 92.1259 89.4833C91.4026 88.8633 91.0409 88.0194 91.0409 86.9517C91.0409 86.0389 91.3595 85.2725 91.9968 84.6525C92.6857 83.9464 93.874 83.2919 95.5618 82.6892C96.9051 82.2758 98.0504 81.9658 98.9976 81.7592V80.9325C98.9976 79.5547 98.7737 78.6075 98.3259 78.0908C97.9126 77.6258 97.1979 77.3933 96.1818 77.3933C95.5273 77.3933 94.9245 77.4881 94.3734 77.6775L93.8051 79.5892C93.5984 80.3469 93.1765 80.7258 92.5393 80.7258C91.8332 80.7258 91.4543 80.3986 91.4026 79.7442C91.6782 78.6936 92.2809 77.8669 93.2109 77.2642C94.1582 76.6614 95.3207 76.36 96.6984 76.36C98.1623 76.36 99.2301 76.7131 99.9018 77.4192C100.608 78.1597 100.961 79.3567 100.961 81.01V87.1325C100.961 88.4414 101.331 89.0958 102.072 89.0958C102.468 89.0958 102.855 88.8892 103.234 88.4758L103.673 89.0183C103.105 89.8794 102.356 90.31 101.426 90.31C100.771 90.31 100.238 90.1119 99.8243 89.7158C99.4282 89.3025 99.1698 88.7342 99.0493 88.0108C98.2054 88.8719 97.5079 89.4661 96.9568 89.7933C96.2851 90.1722 95.5532 90.3617 94.7609 90.3617ZM95.5101 88.8375C96.0268 88.8375 96.5348 88.7083 97.0343 88.45C97.482 88.2089 98.1365 87.7439 98.9976 87.055V82.5858C97.8093 82.9131 96.8448 83.2231 96.1043 83.5158C94.9504 83.9464 94.1409 84.4458 93.6759 85.0142C93.3143 85.4619 93.1334 85.9872 93.1334 86.59C93.1334 87.3306 93.3573 87.8989 93.8051 88.295C94.2184 88.6567 94.7868 88.8375 95.5101 88.8375ZM108.266 90V89.07L111.262 88.7858C111.297 87.1497 111.314 84.6525 111.314 81.2942V79.8733C111.314 76.4806 111.297 73.9575 111.262 72.3042H106.535L105.811 76.0758H104.52L104.726 71.1675H120.02L120.278 76.0758H118.986L118.263 72.3042H113.536C113.484 73.9403 113.458 76.4633 113.458 79.8733V81.2942C113.458 84.6353 113.484 87.1325 113.536 88.7858L116.506 89.07V90H108.266ZM121.785 90V89.1733L124.006 88.8375C124.041 86.9431 124.058 85.3672 124.058 84.11V71.245L121.707 71.0383V70.2375L125.66 69.1525L126.047 69.385L125.944 73.3633V79.0725C126.702 78.2286 127.537 77.5656 128.45 77.0833C129.397 76.6011 130.31 76.36 131.188 76.36C132.394 76.36 133.28 76.7475 133.849 77.5225C134.434 78.3319 134.727 79.6322 134.727 81.4233V84.11C134.727 85.3672 134.744 86.9431 134.779 88.8375L136.845 89.1733V90H130.542V89.1733L132.738 88.8633C132.772 86.9344 132.79 85.35 132.79 84.11V81.5267C132.79 80.2178 132.583 79.2878 132.17 78.7367C131.791 78.22 131.171 77.9617 130.31 77.9617C128.897 77.9617 127.468 78.6506 126.021 80.0283V84.11C126.021 85.35 126.039 86.9344 126.073 88.8633L128.114 89.1733V90H121.785ZM145.3 90.3617C143.44 90.3617 141.95 89.7589 140.831 88.5533C139.66 87.3133 139.074 85.6083 139.074 83.4383C139.074 81.3372 139.703 79.615 140.96 78.2717C142.166 76.9972 143.647 76.36 145.403 76.36C146.919 76.36 148.159 76.8336 149.123 77.7808C150.088 78.7453 150.57 80.0283 150.57 81.63C150.57 82.3361 150.51 82.87 150.389 83.2317L141.167 83.2058C141.184 85.0486 141.64 86.4781 142.536 87.4942C143.38 88.4414 144.516 88.915 145.946 88.915C147.53 88.915 148.882 88.2433 150.002 86.9L150.544 87.3133C149.39 89.3456 147.642 90.3617 145.3 90.3617ZM141.193 82.2242H147.238C147.771 82.2242 148.15 82.095 148.374 81.8367C148.546 81.63 148.633 81.2942 148.633 80.8292C148.633 79.8992 148.323 79.0983 147.703 78.4267C147.048 77.7378 146.239 77.3933 145.274 77.3933C144.258 77.3933 143.38 77.7894 142.639 78.5817C141.83 79.46 141.348 80.6742 141.193 82.2242ZM153.149 90V89.1733L155.267 88.8633C155.319 87.4167 155.345 85.8322 155.345 84.11V82.6892C155.345 81.6731 155.31 80.4589 155.241 79.0467C155.241 78.9261 155.241 78.8314 155.241 78.7625L152.942 78.5817V77.755L156.662 76.3858L157.024 76.6442L157.282 80.0283C157.747 78.8917 158.359 77.9961 159.116 77.3417C159.874 76.6872 160.666 76.36 161.493 76.36C161.924 76.36 162.32 76.4461 162.681 76.6183C163.06 76.7906 163.319 77.0144 163.456 77.29C163.456 78.4611 162.974 79.0467 162.01 79.0467C161.493 79.0467 160.942 78.7969 160.356 78.2975L159.995 77.9875C158.841 78.7453 157.945 80.0025 157.308 81.7592V84.11C157.308 85.3328 157.325 86.9086 157.36 88.8375L159.736 89.1733V90H153.149ZM168.729 90.3617C167.644 90.3617 166.766 90.0689 166.094 89.4833C165.371 88.8633 165.009 88.0194 165.009 86.9517C165.009 86.0389 165.328 85.2725 165.965 84.6525C166.654 83.9464 167.842 83.2919 169.53 82.6892C170.873 82.2758 172.018 81.9658 172.966 81.7592V80.9325C172.966 79.5547 172.742 78.6075 172.294 78.0908C171.881 77.6258 171.166 77.3933 170.15 77.3933C169.495 77.3933 168.893 77.4881 168.342 77.6775L167.773 79.5892C167.567 80.3469 167.145 80.7258 166.507 80.7258C165.801 80.7258 165.422 80.3986 165.371 79.7442C165.646 78.6936 166.249 77.8669 167.179 77.2642C168.126 76.6614 169.289 76.36 170.667 76.36C172.13 76.36 173.198 76.7131 173.87 77.4192C174.576 78.1597 174.929 79.3567 174.929 81.01V87.1325C174.929 88.4414 175.299 89.0958 176.04 89.0958C176.436 89.0958 176.823 88.8892 177.202 88.4758L177.642 89.0183C177.073 89.8794 176.324 90.31 175.394 90.31C174.74 90.31 174.206 90.1119 173.792 89.7158C173.396 89.3025 173.138 88.7342 173.017 88.0108C172.173 88.8719 171.476 89.4661 170.925 89.7933C170.253 90.1722 169.521 90.3617 168.729 90.3617ZM169.478 88.8375C169.995 88.8375 170.503 88.7083 171.002 88.45C171.45 88.2089 172.105 87.7439 172.966 87.055V82.5858C171.777 82.9131 170.813 83.2231 170.072 83.5158C168.918 83.9464 168.109 84.4458 167.644 85.0142C167.282 85.4619 167.102 85.9872 167.102 86.59C167.102 87.3306 167.325 87.8989 167.773 88.295C168.187 88.6567 168.755 88.8375 169.478 88.8375Z" fill="#003260"/>
<path d="M62.5 64H45.5V63L51.5 62L72 14L94.5 63H99V64H82V63L84 62.5L70 28L58 62.5L62.5 63V64Z" fill="#003260"/>
<path d="M71.5 48C60.7 51.6 48 49.5 43 48C46 47.5 49.5 47.5 58 46C66.5 44.5 80 38.5 90.5 31.5C101 24.5 114 19.5 126 17C135.6 15 148 17.8333 153 19.5H141C135.4 19.5 130.667 21.1667 129 22V60C129 62.4 131 63 132 63H136V64H115V63H118.5C120.5 63 121 61 121 60V24C118.5 25 112.2 27.7 107 30.5C100.5 34 85 43.5 71.5 48Z" fill="#003260"/>
<path d="M73 40.5C63 45.3 49.8333 46.5 44.5 46.5C46.3333 46.1667 51.6 45.2 58 44C66 42.5 78.5 36 86.5 31C94.5 26 110 15.5 128.5 14.5C143.3 13.7 153.333 16.8333 156.5 18.5C151.333 17.3333 139.2 15.2 132 16L131.64 16.04C122.864 17.0143 117.826 17.5738 105 23C92 28.5 85.5 34.5 73 40.5Z" fill="#003260"/>
</svg>
